PathFileType	4	(X/Y/Z)	C:/Users/beibeiliu/ov580/test_trc/User1\sequence.13_training_dense_right.trc
DataRate	CameraRate	NumFrames	NumMarkers	Units	OrigDataRate	OrigDataStartFrame	OrigNumFrames
120	120	20	19	mm	120	80	316
Frame#	Time	ThumbCMC			ThumbMCP			ThumbIP			ThumbTip			IndexMCP			IndexPIP			IndexTip			MiddleMCP			MiddlePIP			MiddleTip			RingMCP			RingPIP			RingTip			PinkyMCP			PinkyPIP			PinkyTip			BackHand1			BackHand2			BackHand3	
		X0	Y0	Z0	X1	Y1	Z1	X2	Y2	Z2	X3	Y3	Z3	X4	Y4	Z4	X5	Y5	Z5	X6	Y6	Z6	X7	Y7	Z7	X8	Y8	Z8	X9	Y9	Z9	X10	Y10	Z10	X11	Y11	Z11	X12	Y12	Z12	X13	Y13	Z13	X14	Y14	Z14	X15	Y15	Z15	X16	Y16	Z16	X17	Y17	Z17	X18	Y18	Z18	
79	0.658333	80.4809	-23.4412	48.5995	67.0917	-29.7123	15.3801	64.2466	-26.3206	-9.72113	63.8274	-22.0737	-37.0859	78.3388	34.0068	-13.7382	76.2405	22.2319	-44.878	73.4477	-10.4213	-47.3714	108.671	47.7742	-7.51552	106.087	63.2697	-33.6735	100.853	74.0137	-67.8007	135.57	38.6015	-4.06061	136.291	61.6083	-27.0644	135.695	73.3764	-52.6043	162.842	16.6305	-3.84099	164.686	29.1574	-16.8305	176.603	48.9674	-28.0033	140.377	9.74887	39.0831	143.456	-3.46601	65.9125	108.808	5.9541	57.3974	
80	0.666667	80.5869	-25.3768	50.9253	67.3371	-30.54	13.9027	62.7237	-26.9859	-11.6815	58.6223	-27.0787	-37.9514	82.25	32.947	-13.6509	74.267	20.9625	-43.4037	74.7021	-13.1023	-47.8418	110.729	46.063	-9.20628	108.102	61.556	-35.0886	100.339	70.1382	-64.313	136.636	36.853	-3.15855	135.794	56.8761	-25.07	134.538	70.5625	-49.8115	159.18	14.2044	-2.52769	168.734	26.6231	-17.5906	177.375	46.4454	-29.7322	139.08	7.60262	39.5518	144.527	-7.27997	66.1139	108.856	3.8537	58.0694	
81	0.675	80.6641	-26.8726	49.2778	68.7217	-34.1769	14.6547	61.5419	-30.2412	-11.5562	62.7242	-28.9409	-35.8409	78.629	28.1468	-14.9818	73.3215	14.7099	-44.446	74.2185	-20.6847	-47.6803	112.457	44.9279	-13.5653	106.962	57.4074	-41.4806	99.2134	64.5863	-68.9371	138.592	35.583	-6.37737	135.556	55.9924	-28.7564	138.829	66.2738	-53.8119	161.189	11.2448	-5.03274	170.486	22.0084	-18.0286	177.055	41.5552	-27.0959	140.803	3.49255	39.0102	148.576	-9.52999	66.482	113.056	3.53341	55.7631	
82	0.683333	77.6497	-26.6307	46.9184	68.0517	-35.0254	13.4708	63.5344	-30.7482	-14.2514	60.4441	-32.245	-38.5808	82.1556	23.1529	-21.4079	75.5888	8.57726	-47.3859	79.2569	-24.0563	-47.6949	111.595	38.7906	-16.0402	104.582	50.7987	-40.2135	101.008	58.3619	-76.6315	138.209	32.337	-11.217	136.161	50.4916	-34.815	137.692	58.595	-56.6767	160.528	5.44025	-5.01818	171.209	16.54	-20.2535	176.854	35.0874	-29.2696	142.667	4.57106	32.4231	145.787	-7.53858	62.9549	110.886	3.88481	51.0248	
83	0.691667	80.8698	-26.4598	46.9258	65.5483	-35.798	11.7425	60.5322	-34.065	-13.2879	57.8068	-35.6444	-39.5663	83.304	19.434	-23.1738	73.7289	-0.353332	-51.228	75.59	-34.3996	-45.856	114.692	34.4186	-20.8628	107.904	44.2735	-47.9267	102.458	49.0639	-79.3701	137.023	25.2295	-13.5401	139.641	41.639	-37.2316	135.867	53.7439	-64.0567	161.691	2.89208	-11.4641	169.488	13.5504	-26.1892	176.958	29.5623	-34.057	144.764	2.00971	31.387	148.669	-12.1702	63.2784	112.033	4.87282	50.1022	
84	0.7	79.5463	-25.9054	46.1704	67.5216	-34.862	12.4541	58.4059	-34.5255	-15.9363	58.4482	-38.3107	-37.9064	77.9543	16.4995	-26.123	76.3637	-5.11498	-52.2093	77.5629	-38.3175	-44.4946	111.985	30.0666	-23.2774	106.805	41.8592	-54.6673	105.104	44.7652	-85.3616	136.216	25.2257	-19.0344	142.834	38.2607	-42.5025	135.722	47.1674	-66.7942	160.656	-3.44376	-8.8712	171.026	6.0591	-25.1882	174.637	24.016	-39.0326	138.917	2.55656	28.403	146.097	-9.74114	59.6844	112.357	3.87207	46.3564	
85	0.708333	78.7826	-24.1621	45.364	64.8164	-35.2847	13.8968	60.7896	-33.4699	-14.2196	54.4075	-38.537	-37.934	80.2307	16.2981	-23.7332	74.6208	-2.83381	-51.783	76.7367	-38.2168	-43.9281	109.318	33.4203	-25.7851	108.549	41.2576	-50.9762	102.667	45.8181	-85.5474	140.271	23.985	-19.8826	138.053	38.4255	-40.9521	140.042	47.1413	-68.4737	160.273	-1.10833	-12.6664	168.447	6.69284	-26.1118	173.741	25.5066	-43.987	138.869	0.539331	31.5954	144.938	-12.6096	62.6156	112.24	2.49896	51.0142	
86	0.716667	76.3208	-23.566	47.1608	62.5135	-35.5178	16.6628	55.545	-30.9038	-13.4618	52.6506	-35.8603	-36.0898	78.6885	20.7309	-23.1796	75.0166	4.21944	-48.1035	78.2751	-34.6916	-42.8393	111.857	36.1179	-19.9141	107.71	47.0461	-48.8194	101.325	50.5596	-81.4191	138.825	28.5645	-17.0828	136.103	44.3545	-39.7542	133.856	53.4382	-65.4049	158.105	1.50231	-9.24559	165.144	13.2566	-25.0796	171.521	29.3159	-38.0413	138.82	2.21686	31.6923	145.171	-8.51658	64.6981	109.685	6.52986	51.2789	
87	0.725	77.4014	-23.6727	51.4179	64.1848	-28.853	15.1708	55.5895	-26.2404	-12.2935	54.5955	-26.7353	-37.9873	81.2517	27.4028	-18.327	75.4605	13.368	-45.2646	72.1329	-21.2022	-46.1452	110.479	42.9528	-15.8011	105.111	53.78	-40.97	105.224	59.5778	-71.9096	136.802	33.5569	-10.4068	139.271	50.1196	-33.897	136.164	59.8855	-57.3097	160.098	5.80467	-5.65164	165.159	17.5322	-21.2818	174.951	35.3868	-36.2583	140.755	5.03969	37.6252	143.291	-8.52038	64.7421	109.595	4.88462	56.6782	
88	0.733333	77.0811	-22.7609	53.4815	61.7849	-27.8932	17.4612	58.6686	-22.0308	-8.71286	58.505	-20.406	-34.9538	82.2061	32.7418	-12.9065	75.9558	19.4673	-44.8834	71.3556	-14.7854	-45.6768	114.182	47.4228	-11.4036	109.094	59.966	-34.9424	103.865	69.6959	-66.2969	133.952	38.6804	-7.08918	137.175	57.1686	-29.7708	139.789	68.5814	-54.9843	156.591	10.9515	-1.40101	167.427	23.5804	-17.9893	174.801	43.3529	-32.5146	136.454	8.52707	36.297	140.855	-5.39389	66.1734	107.573	8.71941	58.4795	
89	0.741667	77.0712	-17.559	50.38	64.1433	-25.3243	17.961	56.8486	-18.1772	-10.0741	58.0909	-18.4532	-32.574	80.7977	36.0579	-9.90414	72.5508	28.1303	-39.2588	74.312	-9.2819	-47.4406	113.506	48.5548	-7.01639	106.895	65.7939	-33.251	102.67	74.9251	-64.1029	134.917	41.2469	-4.33703	139.717	57.8595	-24.7331	136.587	71.6928	-47.7548	159.712	12.5272	-0.748406	164.837	25.1139	-13.4291	174.336	43.1845	-24.6191	140.12	7.48051	40.3449	144.504	-6.57556	66.5681	106.434	12.0759	58.9747	
90	0.75	75.8546	-18.144	52.5117	62.287	-22.628	16.5094	56.1708	-15.9438	-11.4554	54.5995	-17.7646	-36.103	78.1203	38.8502	-10.2304	76.1827	28.2161	-39.8503	71.4648	-4.78726	-45.7729	114.003	49.1622	-5.45333	106.791	66.0472	-32.4501	104.496	74.4953	-61.2288	138.067	39.4204	-3.08175	137.771	61.2481	-27.8726	137.553	72.8317	-51.6647	157.52	12.5029	-0.694016	168.512	24.6787	-15.1492	173.107	42.4265	-25.8498	137.613	10.9702	37.9103	141.154	-7.67126	70.6367	106.419	13.252	59.9722	
91	0.758333	79.0471	-16.124	50.6504	61.3943	-22.9181	15.4418	58.0922	-22.7355	-8.44194	52.701	-23.418	-35.1306	81.569	35.8259	-14.6312	71.5105	21.3628	-44.2479	70.622	-11.657	-43.7675	112.736	47.5278	-12.2846	106.335	62.9556	-42.3639	102.188	66.8421	-71.5113	135.593	38.8357	-8.70525	138.683	57.5502	-34.6253	133.408	65.4118	-56.6066	159.986	8.63942	-4.67696	166.476	22.4419	-21.493	172.433	38.4393	-31.1398	139.747	10.8034	34.3804	144.72	-5.95755	66.2402	108.144	11.0312	58.1698	
92	0.766667	76.6008	-15.7352	46.0322	64.6273	-27.602	14.7072	54.1122	-28.9419	-11.0858	55.4497	-31.5128	-36.1773	76.9558	28.3434	-21.1751	68.1694	10.8912	-49.9059	70.7336	-22.6265	-43.1642	110.869	40.6212	-21.9162	102.088	50.8997	-52.0811	102.088	49.9489	-81.7834	132.875	31.0571	-18.5357	135.319	45.0514	-42.3037	131.388	51.0706	-74.6067	158.857	4.57009	-15.0768	162.013	11.8322	-26.8427	170.796	29.9076	-42.4049	140.487	6.96571	29.0186	146.524	-6.82658	61.6683	108.928	9.34421	50.6141	
93	0.775	76.4263	-16.9218	43.9111	59.32	-33.1455	14.778	51.625	-33.0725	-15.0438	46.9393	-42.0123	-38.2023	74.8749	19.3191	-27.9956	64.0061	0.0359082	-53.1196	70.84	-35.1976	-41.0437	106.503	30.8893	-29.7932	102.345	37.399	-64.7814	94.6348	35.0167	-93.8022	131.021	21.7356	-30.0367	130.208	31.1662	-55.0176	123.813	33.8541	-80.1915	154.968	-5.32907	-21.9057	162.275	0.291447	-37.179	169.264	14.6467	-54.6505	141.215	3.92312	20.4847	141.665	-7.39186	57.409	108.429	12.1081	42.3565	
94	0.783333	76.5719	-22.4239	44.9114	58.0459	-38.4804	16.9509	47.4722	-40.5781	-13.5832	47.7682	-48.5843	-39.4063	73.361	8.5397	-34.7066	64.1294	-16.657	-55.8881	65.9741	-45.6568	-39.7957	103.707	22.874	-38.3578	96.7038	26.0771	-70.0904	90.9683	23.5773	-100.173	129.867	14.9667	-36.1018	128.912	21.2364	-62.3472	125.141	22.7323	-88.4104	149.774	-11.8192	-24.3454	156.843	-7.46586	-43.6689	166.915	5.29688	-63.9352	138.23	-0.561536	16.4776	142.62	-6.59313	47.6786	105.363	8.40938	42.1211	
95	0.791667	72.2818	-24.9862	43.6714	54.9528	-42.0264	17.3021	46.6727	-45.2142	-14.3913	48.4739	-52.5139	-35.2751	68.2619	1.87404	-32.577	63.3553	-25.1492	-55.1826	67.8898	-53.3352	-37.8202	103.459	15.9297	-39.1889	93.0306	19.6045	-69.4174	89.8191	16.5513	-99.2639	125.684	10.5429	-34.9361	124.738	17.6737	-62.7471	122.302	18.9568	-89.6841	149.439	-13.0004	-26.7985	157.789	-10.9862	-46.6725	164.336	-1.40016	-64.2174	133.771	0.633512	17.4489	140.507	-5.29608	48.6756	105.239	6.00843	36.0774	
96	0.8	70.6128	-25.3129	44.8007	59.3363	-40.4151	14.5608	49.8796	-45.049	-9.90321	47.7329	-52.137	-35.4664	66.4368	0.359445	-32.1504	60.8706	-23.7216	-53.244	73.1283	-54.5716	-38.9058	97.5516	17.8207	-41.153	95.1129	19.9546	-68.9156	88.0206	18.2369	-95.2402	128.012	9.88927	-33.2674	125.395	19.8447	-64.6478	119.306	23.416	-88.7402	153.544	-13.0456	-22.5823	154.824	-7.6501	-45.453	164.517	2.41033	-59.709	131.558	-0.227045	20.8618	136.275	-4.17917	50.7456	102.428	4.72599	42.3342	
97	0.808333	70.9488	-25.197	46.0049	60.8057	-37.2639	16.9068	47.8388	-41.1058	-8.52641	50.0917	-45.2329	-35.3832	71.8416	6.20824	-30.1952	66.3713	-18.6472	-51.709	73.8958	-49.2386	-37.2712	99.4225	24.4099	-36.1946	94.1099	27.6034	-62.3554	90.8504	26.8979	-94.3226	128.712	16.6923	-32.4323	130.314	25.291	-56.1426	127.904	30.76	-82.2669	151.049	-7.11967	-20.1617	160.927	-2.90843	-41.5164	167.953	10.0633	-59.1579	134.601	2.30772	21.7072	138.169	-2.46112	54.1046	101.637	6.55187	43.6498	
98	0.816667	72.6104	-24.2225	49.8874	60.0423	-35.5856	19.0756	54.0042	-33.7463	-8.77734	50.8177	-37.0063	-37.5871	75.4754	14.626	-26.4949	71.5378	-7.90853	-50.8693	72.6296	-41.3694	-37.1596	105.841	32.6527	-29.6467	99.4832	39.5809	-59.2323	94.0692	40.1208	-85.174	132.519	22.5743	-23.0238	132.403	35.2655	-48.2188	130.528	42.1639	-72.9396	157.056	-2.72776	-14.2536	158.406	7.97893	-37.404	165.874	19.1112	-54.3373	133.779	4.70923	28.626	140.921	-4.42468	60.4984	101.62	9.04419	45.9946	
